<svg xmlns="http://www.w3.org/2000/svg" viewBox="0 0 900 1200" role="img" aria-label="AD VIDEO placeholder">
  <defs>
    <linearGradient id="bg" x1="0" y1="0" x2="1" y2="1"><stop offset="0" stop-color="#3a1322"/><stop offset="1" stop-color="#e95f92"/></linearGradient>
    <radialGradient id="glow" cx="68%" cy="18%" r="62%"><stop offset="0" stop-color="#fff6ec" stop-opacity=".75"/><stop offset=".42" stop-color="#e95f92" stop-opacity=".32"/><stop offset="1" stop-color="#000" stop-opacity="0"/></radialGradient>
    <filter id="blur"><feGaussianBlur stdDeviation="18"/></filter>
  </defs>
  <rect width="900" height="1200" fill="url(#bg)"/>
  <rect width="900" height="1200" fill="url(#glow)"/>
  <circle cx="700" cy="155" r="95" fill="#fff2e5" opacity=".72" filter="url(#blur)"/>
  <circle cx="182" cy="1010" r="150" fill="#ff9cbd" opacity=".18"/>
  <path d="M80 760 C190 630 335 680 420 548 C522 390 676 425 820 274" fill="none" stroke="#fff8f0" stroke-opacity=".28" stroke-width="7"/>
  <g opacity=".82">
    <rect x="105" y="170" width="690" height="760" rx="56" fill="#fff7f0" opacity=".12" stroke="#fff" stroke-opacity=".26"/>
    <rect x="155" y="230" width="590" height="390" rx="38" fill="#fff" opacity=".18"/>
    <circle cx="326" cy="402" r="92" fill="#fff0e8" opacity=".42"/>
    <rect x="205" y="692" width="490" height="28" rx="14" fill="#fff" opacity=".5"/>
    <rect x="205" y="742" width="360" height="22" rx="11" fill="#fff" opacity=".32"/>
  </g>
  <g font-family="Inter, Arial, sans-serif" text-anchor="middle">
    <text x="450" y="845" fill="#fff" font-size="76" font-weight="900" letter-spacing="6">AD VIDEO</text>
    <text x="450" y="908" fill="#ffe1cc" font-size="34" font-weight="800" letter-spacing="4">SNS Creative</text>
  </g>
  <g transform="translate(405 510)">
    <circle cx="45" cy="45" r="45" fill="#09070a" opacity=".62" stroke="#fff" stroke-opacity=".45"/>
    <path d="M37 25 L68 45 L37 65 Z" fill="#fff"/>
  </g>
  <g fill="#fff7ee" opacity=".8"><path d="M136 132 l17 34 35 6-26 24 6 35-32-17-31 17 6-35-26-24 35-6z"/><path d="M760 980 l10 21 23 3-17 16 4 23-20-11-21 11 4-23-17-16 23-3z"/></g>
</svg>