<svg xmlns="http://www.w3.org/2000/svg" viewBox="0 0 1600 950" role="img" aria-label="黒背景にスマホ3台とAI動画プレビューが並ぶメインビジュアル"><defs><radialGradient id="bg" cx="70%" cy="45%" r="70%"><stop offset="0" stop-color="#3b1825"/><stop offset=".45" stop-color="#09080a"/><stop offset="1" stop-color="#020203"/></radialGradient><linearGradient id="pink" x1="0" x2="1"><stop stop-color="#ff8cb5"/><stop offset="1" stop-color="#b83f6c"/></linearGradient><linearGradient id="gold" x1="0" x2="1"><stop stop-color="#f7ddba"/><stop offset="1" stop-color="#b99064"/></linearGradient><filter id="glow"><feGaussianBlur stdDeviation="8" result="b"/><feMerge><feMergeNode in="b"/><feMergeNode in="SourceGraphic"/></feMerge></filter></defs><rect width="1600" height="950" fill="url(#bg)"/><path d="M60 790 C380 610 520 890 880 720 S1320 520 1540 730" fill="none" stroke="#ff6f9f" stroke-width="5" opacity=".42" filter="url(#glow)"/><path d="M120 850 C450 690 690 930 1050 775 S1390 620 1580 760" fill="none" stroke="#c69b6d" stroke-width="2" opacity=".35"/><g fill="#fff" opacity=".55"><circle cx="1350" cy="120" r="3"/><circle cx="1410" cy="210" r="2"/><circle cx="1260" cy="810" r="2"/><circle cx="250" cy="160" r="2"/></g><text x="80" y="160" fill="#fff" font-size="30" font-family="serif" letter-spacing="4">初心者でも、スマホだけでプロ級</text><text x="80" y="285" fill="#fff" font-size="70" font-family="serif">スマホだけで</text><text x="80" y="405" fill="#ff8cb5" font-size="126" font-family="serif" font-weight="900">AI動画</text><text x="80" y="505" fill="#fff" font-size="68" font-family="serif">を販促素材に</text><text x="82" y="575" fill="#d8c8cb" font-size="28" font-family="sans-serif">LP画像・商品画像・SNS用素材を、動く広告へ。</text><rect x="80" y="630" width="370" height="74" rx="37" fill="url(#pink)"/><text x="150" y="678" fill="#fff" font-size="28" font-family="sans-serif" font-weight="700">noteで詳しく見る →</text><g transform="translate(610 80)"><g transform="translate(0 70) rotate(-7)"><rect width="300" height="620" rx="48" fill="#171519" stroke="#69555c" stroke-width="8"/><rect x="24" y="55" width="252" height="515" rx="30" fill="#3a211f"/><rect x="42" y="88" width="216" height="260" rx="18" fill="#b98566" opacity=".88"/><text x="64" y="166" fill="#fff4ef" font-size="36" font-family="serif">Cafe</text><text x="62" y="210" fill="#fff4ef" font-size="32" font-family="serif">Open</text><circle cx="150" cy="282" r="42" fill="#000" opacity=".48"/><path d="M141 260 L141 304 L178 282Z" fill="#fff"/><rect x="48" y="390" width="204" height="18" rx="9" fill="#ff8cb5"/><rect x="48" y="432" width="156" height="18" rx="9" fill="#fff" opacity=".45"/></g><g transform="translate(270 0)"><rect width="365" height="745" rx="58" fill="#111114" stroke="#866f76" stroke-width="9"/><rect x="31" y="70" width="303" height="605" rx="34" fill="#1b1417"/><rect x="48" y="92" width="270" height="360" rx="24" fill="#d3a08f"/><circle cx="183" cy="270" r="58" fill="#000" opacity=".5"/><path d="M171 238 L171 302 L224 270Z" fill="#fff"/><text x="58" y="124" fill="#fff" font-size="20" font-family="sans-serif">● REC</text><text x="226" y="124" fill="#fff" font-size="18" font-family="sans-serif">00:10</text><rect x="58" y="480" width="250" height="8" rx="4" fill="#4d3038"/><rect x="58" y="480" width="150" height="8" rx="4" fill="#ff7da7"/><g transform="translate(54 515)"><rect width="52" height="72" rx="8" fill="#d8ad9a"/><rect x="62" width="52" height="72" rx="8" fill="#be7c91"/><rect x="124" width="52" height="72" rx="8" fill="#d2bd9b"/><rect x="186" width="52" height="72" rx="8" fill="#6f4451"/></g></g><g transform="translate(630 80) rotate(7)"><rect width="300" height="620" rx="48" fill="#171519" stroke="#69555c" stroke-width="8"/><rect x="24" y="55" width="252" height="515" rx="30" fill="#2b1820"/><text x="54" y="145" fill="#fff" font-size="42" font-family="serif">Summer</text><text x="54" y="203" fill="#ffb3c9" font-size="54" font-family="serif">SALE</text><text x="54" y="278" fill="#fff" font-size="68" font-family="serif">20%</text><text x="58" y="323" fill="#fff" font-size="34" font-family="serif">OFF</text><circle cx="150" cy="420" r="42" fill="#000" opacity=".48"/><path d="M141 398 L141 442 L178 420Z" fill="#fff"/></g></g><g transform="translate(1300 180)"><circle r="92" fill="none" stroke="#ff7da7" stroke-width="3" filter="url(#glow)"/><text y="-15" text-anchor="middle" fill="#fff" font-size="25" font-family="sans-serif" font-weight="700">AIが構成</text><text y="28" text-anchor="middle" fill="#fff" font-size="18" font-family="sans-serif">台本も自動生成</text></g><g transform="translate(1360 430)"><circle r="92" fill="#c14b77" opacity=".92"/><text y="-18" text-anchor="middle" fill="#fff" font-size="25" font-family="sans-serif" font-weight="700">字幕・BGM</text><text y="24" text-anchor="middle" fill="#fff" font-size="18" font-family="sans-serif">動画に自動追加</text></g><g transform="translate(1285 670)"><circle r="92" fill="url(#gold)"/><text y="-18" text-anchor="middle" fill="#2a171c" font-size="25" font-family="sans-serif" font-weight="700">SNS広告</text><text y="24" text-anchor="middle" fill="#2a171c" font-size="18" font-family="sans-serif">最適サイズ出力</text></g></svg>